<svg width="1624" height="1457" viewBox="0 0 1624 1457" fill="none" xmlns="http://www.w3.org/2000/svg">
<path d="M135.009 1403.98V1390.29H193.319C196.651 1390.29 198.317 1388.43 198.317 1384.7C198.317 1381.05 196.651 1379.23 193.319 1379.23H155.596C148.536 1379.23 143.181 1377.64 139.531 1374.47C135.882 1371.21 134.057 1366.57 134.057 1360.54C134.057 1354.43 135.882 1349.75 139.531 1346.5C143.26 1343.17 148.615 1341.5 155.596 1341.5H209.86V1355.19H156.429C153.018 1355.19 151.312 1356.85 151.312 1360.19C151.312 1361.85 151.788 1363.16 152.74 1364.11C153.692 1365.06 154.922 1365.54 156.429 1365.54H196.413C202.601 1365.54 207.322 1367.17 210.574 1370.42C213.906 1373.59 215.572 1378.23 215.572 1384.34C215.572 1390.53 213.906 1395.37 210.574 1398.86C207.242 1402.27 202.522 1403.98 196.413 1403.98H135.009ZM225.701 1430.16V1342.1H269.731C280.362 1342.1 288.652 1344.72 294.602 1349.95C300.552 1355.19 303.527 1362.76 303.527 1372.68C303.527 1382.68 300.552 1390.29 294.602 1395.53C288.652 1400.76 280.362 1403.38 269.731 1403.38H242.956V1430.16H225.701ZM269.731 1355.78H242.956V1389.7H269.731C274.888 1389.7 278.815 1388.31 281.512 1385.53C284.289 1382.68 285.677 1378.39 285.677 1372.68C285.677 1367.05 284.289 1362.84 281.512 1360.07C278.815 1357.21 274.888 1355.78 269.731 1355.78ZM345.67 1403.98C335.039 1403.98 326.749 1401.36 320.799 1396.12C314.849 1390.81 311.874 1383.03 311.874 1372.8C311.874 1362.49 314.849 1354.71 320.799 1349.48C326.749 1344.16 335.039 1341.5 345.67 1341.5H367.685C378.316 1341.5 386.606 1344.16 392.556 1349.48C398.506 1354.71 401.481 1362.49 401.481 1372.8C401.481 1383.03 398.506 1390.81 392.556 1396.12C386.606 1401.36 378.316 1403.98 367.685 1403.98H345.67ZM345.67 1390.29H367.685C372.842 1390.29 376.769 1388.86 379.466 1386.01C382.243 1383.15 383.631 1378.75 383.631 1372.8C383.631 1366.77 382.243 1362.33 379.466 1359.47C376.769 1356.62 372.842 1355.19 367.685 1355.19H345.67C340.513 1355.19 336.547 1356.62 333.77 1359.47C331.073 1362.33 329.724 1366.77 329.724 1372.8C329.724 1378.75 331.073 1383.15 333.77 1386.01C336.547 1388.86 340.513 1390.29 345.67 1390.29ZM412.22 1403.38V1342.1H459.106C466.008 1342.1 471.085 1343.84 474.338 1347.33C477.59 1350.75 479.217 1355.27 479.217 1360.9V1373.63H461.724V1363.04C461.724 1358.28 459.344 1355.9 454.584 1355.9H429.713V1403.38H412.22ZM520.579 1403.38C513.677 1403.38 508.599 1401.68 505.347 1398.27C502.094 1394.78 500.468 1390.21 500.468 1384.58V1355.78H482.737V1342.1H500.468V1323.3H517.723V1342.1H543.189V1355.78H517.723V1382.44C517.723 1387.28 520.103 1389.7 524.863 1389.7H546.521V1403.38H520.579ZM553.369 1403.98V1390.29H611.679C615.011 1390.29 616.677 1388.43 616.677 1384.7C616.677 1381.05 615.011 1379.23 611.679 1379.23H573.956C566.895 1379.23 561.54 1377.64 557.891 1374.47C554.241 1371.21 552.417 1366.57 552.417 1360.54C552.417 1354.43 554.241 1349.75 557.891 1346.5C561.619 1343.17 566.974 1341.5 573.956 1341.5H628.22V1355.19H574.789C571.377 1355.19 569.672 1356.85 569.672 1360.19C569.672 1361.85 570.148 1363.16 571.1 1364.11C572.052 1365.06 573.281 1365.54 574.789 1365.54H614.773C620.961 1365.54 625.681 1367.17 628.934 1370.42C632.266 1373.59 633.932 1378.23 633.932 1384.34C633.932 1390.53 632.266 1395.37 628.934 1398.86C625.602 1402.27 620.881 1403.98 614.773 1403.98H553.369Z" fill="white"/>
<path d="M207.657 920.383V1042.55H257.907C266.88 1087.47 309.952 1114.42 331.487 1119.81H207.657V1238.38H130.487V920.383H207.657Z" fill="#FF7A21"/>
<path d="M422.487 1239.38H274.487V1141.38H338.68V1178.8H422.487V1239.38Z" fill="#FF7A21"/>
<path d="M422.487 1110.38H338.68C304.067 1088.55 285.186 1069.07 274.487 1040.33V925.383H422.487V986.451H338.68V1045.72H422.487V1110.38Z" fill="#FF7A21"/>
<path d="M598.616 1030.68L659.487 987.59C647.72 968.191 634.423 951.173 620.1 940.914C607.568 931.937 593.245 925.086 577.132 921.166C563.395 917.824 544.237 917.849 530.584 919.371C516.557 920.934 500.865 926.552 485.826 939.119C475.084 948.095 466.222 962.144 462.552 975.023C458.971 987.59 458.907 1005.75 464.342 1018.11C469.078 1028.88 475.452 1033.55 489.407 1043.24H466.132C458.971 1043.24 453.6 1039.65 450.02 1032.47C446.806 1026.03 444.741 1018.85 441.068 1003.75C440.914 1020.51 441.068 1032.47 444.649 1043.24C449.496 1057.82 454.483 1063.94 462.552 1073.76C468.628 1081.16 482.245 1091.71 500.149 1098.89C512.681 1103.92 532.692 1109.23 555.649 1115.05C566.931 1118.44 573.552 1122.23 577.132 1129.41C580.527 1136.22 580.033 1141.8 578.923 1147.37C577.132 1156.34 569.971 1161.73 562.81 1163.52C555.649 1165.32 546.9 1166.36 534.165 1163.52C521.377 1159.2 514.408 1153.34 501.939 1136.59L437.487 1183.27C457.01 1207.22 474.19 1222.12 492.987 1229.95C518.681 1240.64 534.165 1244.31 571.761 1238.92C583.52 1236.56 589.832 1234.67 600.407 1229.95C610.311 1225.57 615.427 1222.47 623.681 1215.59C643.611 1197.43 651.026 1183.62 655.907 1158.14C659.869 1140.32 657.462 1117.51 650.536 1100.69C643.374 1088.12 641.065 1079.36 620.1 1062.99C603.833 1051.72 593.245 1046.83 571.761 1041.45C550.278 1036.06 535.955 1032.47 530.584 1027.09C525.213 1021.7 523.423 1010.93 528.794 1003.75C537.097 992.646 553.858 994.771 562.81 996.566C571.761 998.361 586.049 1008.61 598.616 1030.68Z" fill="white"/>
<path d="M816.492 1135.45V1052.07C835.59 1052.07 845.14 1044.77 845.14 1030.17C845.14 1016.82 837.842 1010.14 823.246 1010.14C808.495 1010.14 801.12 1019.3 801.12 1037.63V1245.38H706.558V1047.41C706.558 1026.91 708.577 1010.14 712.614 997.101C716.806 983.902 723.871 971.636 733.809 960.301C744.988 947.724 758.963 937.786 775.732 930.488C792.502 923.19 809.815 919.542 827.671 919.542C859.968 919.542 887.063 930.411 908.957 952.149C931.006 973.887 942.03 1000.83 942.03 1032.97C942.03 1064.18 932.17 1089.49 912.451 1108.9C894.439 1126.75 867.266 1135.68 830.932 1135.68L816.492 1135.45Z" fill="white"/>
<path d="M1075.95 1012.94V1245.38H981.392V927.46H1102.74C1139.69 927.46 1168.34 936.622 1188.68 954.944C1211.35 975.44 1222.69 1001.45 1222.69 1032.97C1222.69 1065.11 1208.63 1092.21 1180.53 1114.25L1235.03 1245.38H1135.81L1089.93 1142.9V1061.15H1097.38C1117.26 1061.15 1127.19 1052.61 1127.19 1035.53C1127.19 1020.47 1115.7 1012.94 1092.72 1012.94H1075.95Z" fill="#12B700"/>
<path d="M1335.84 1164.73C1354.3 1189.83 1391.57 1209.56 1432.92 1209.56C1499.61 1209.56 1558.77 1153.97 1556.97 1067.89C1563.74 1047.87 1565.47 1037.8 1565.96 1021.27C1573.15 1033.82 1587.65 1070.97 1576.75 1119.9C1569.55 1152.18 1551.15 1182.58 1531.8 1200.59C1506.76 1223.91 1476.07 1238.25 1438.32 1240.05C1400.56 1241.84 1377.19 1236.46 1350.23 1223.91C1328.65 1213.86 1302.14 1195.21 1281.91 1159.35C1257.64 1116.31 1261.06 1064.3 1271.12 1035.61C1277.77 1016.67 1292.12 985.271 1323.26 962.086C1354.4 938.902 1374.68 931.455 1414.95 926.221L1440.11 962.086C1411.49 963.24 1393.37 968.221 1371.8 981.813C1339.44 1002.2 1315.22 1042.88 1312.47 1084.03C1310.67 1110.93 1316.07 1137.83 1335.84 1164.73Z" fill="#12B700"/>
<path d="M1474.27 1028.44C1474.27 987.192 1427 907.083 1330.45 829.383C1432.67 871.267 1510.86 922.634 1542.59 976.433C1560.57 1006.92 1560.57 1046.37 1542.59 1075.06C1533.6 1089.41 1517.42 1102.77 1504.83 1110.93C1468.88 1134.24 1414.21 1146.76 1357.42 1153.97C1427.91 1119.43 1474.27 1089.41 1474.27 1028.44Z" fill="#12B700"/>
<ellipse cx="1582.14" cy="945.947" rx="41.3489" ry="41.2457" fill="#12B700"/>
<line x1="130.487" y1="1287.38" x2="636.487" y2="1287.38" stroke="white" stroke-width="6"/>
<path d="M891.012 586.3C876.237 622.352 858.503 639.989 821.689 670.048C1038.04 751.885 1155.5 784.849 1361.16 830.914L1251.92 742.47C1262.93 778.401 1254.83 784.29 1243.35 782.062C1138.77 740.671 981.287 665.081 891.012 586.3Z" fill="#12B700" stroke="black"/>
<ellipse cx="61.9137" cy="84.0014" rx="61.9137" ry="84.0014" transform="matrix(0.963324 -0.268339 0.275967 0.961167 139 151.229)" fill="white"/>
<path d="M374.841 412.549C323.059 325.661 435.523 149.559 585.271 1.92494C512.381 104.575 475.555 160.316 452.061 240.866C427.297 344.841 519.162 418.978 712.736 473.682C824.91 503.558 851.306 522.189 849.845 557.893C829.128 645.772 536.398 770.356 280.185 832.823C247.129 844.894 251.363 854.341 276.914 873.309L139 872.709C415.37 759.756 513.824 709.368 588.693 637.758C640.185 573.072 633.533 544.281 532.661 511.657C436.71 492.2 406.695 467.954 374.841 412.549Z" fill="white" stroke="black"/>
<path d="M336.884 412.386C361.338 481.301 406.781 501.531 406.781 501.531C328.231 582.304 85.0075 456.561 0.988281 298.133C137.868 425.42 222.24 450.818 336.884 412.386Z" fill="#FF7A21" stroke="#FF9933"/>
</svg>
